PathFileType	4	(X/Y/Z)	RBDS05\RBDS05runT25.trc
DataRate	CameraRate	NumFrames	NumMarkers	Units	OrigDataRate	OrigDataStartFrame	OrigNumFrames
150.000000	150.000000	4	33	mm	150.000000	2812	4500
Frame#	Time	L.ASIS			L.Heel.Bottom			L.Heel.Lateral			L.Heel.Top			L.Iliac.Crest			L.MT1			L.MT5			L.PSIS			L.Shank.Bottom.Lateral			L.Shank.Bottom.Medial			L.Shank.Top.Lateral			L.Shank.Top.Medial			L.Thigh.Bottom.Lateral			L.Thigh.Bottom.Medial			L.Thigh.Top.Lateral			L.Thigh.Top.Medial			R.ASIS			R.ASY			R.Heel.Bottom			R.Heel.Lateral			R.Heel.Top			R.Iliac.Crest			R.MT1			R.MT5			R.PSIS			R.Shank.Bottom.Lateral			R.Shank.Bottom.Medial			R.Shank.Top.Lateral			R.Shank.Top.Medial			R.Thigh.Bottom.Lateral			R.Thigh.Bottom.Medial			R.Thigh.Top.Lateral			R.Thigh.Top.Medial			
		X1	Y1	Z1	X2	Y2	Z2	X3	Y3	Z3	X4	Y4	Z4	X5	Y5	Z5	X6	Y6	Z6	X7	Y7	Z7	X8	Y8	Z8	X9	Y9	Z9	X10	Y10	Z10	X11	Y11	Z11	X12	Y12	Z12	X13	Y13	Z13	X14	Y14	Z14	X15	Y15	Z15	X16	Y16	Z16	X17	Y17	Z17	X18	Y18	Z18	X19	Y19	Z19	X20	Y20	Z20	X21	Y21	Z21	X22	Y22	Z22	X23	Y23	Z23	X24	Y24	Z24	X25	Y25	Z25	X26	Y26	Z26	X27	Y27	Z27	X28	Y28	Z28	X29	Y29	Z29	X30	Y30	Z30	X31	Y31	Z31	X32	Y32	Z32	X33	Y33	Z33	

2813	18.74666666666667	2182.462705556552	980.8409439290059	942.263469696344	2223.556550553509	27.56553447974592	1001.200351039778	2243.516553330291	54.360847807917	955.6924650342889	2217.095413522906	77.50555112730565	1001.324590648424	2122.059779689148	1056.208140758945	896.6221740306414	2412.39540764949	115.384061481565	1018.298756353515	2381.826787190743	94.23642465666235	919.3555404819068	2030.330803947184	1029.045154341645	989.5244901182275	2244.016025381956	196.3021317389969	936.7613350746332	2208.941938633504	190.2678887709374	973.408145712639	2223.118358869135	273.0556976280812	922.7647036994068	2186.424208824762	271.5345401765135	961.7650021506868	2196.685203783296	635.0763974919149	893.5390675122032	2137.11431150286	609.5197612792862	926.5578389569337	2146.070684831748	733.3892406636013	886.4154264407613	2092.515837670896	710.7648046210118	921.5409897080538	2172.359497919125	982.8418174413194	1163.395825620873	1774.115814426197	131.2844030256176	1111.891115353728	1637.977799540032	241.1784573205846	1068.408897927514	1654.099967479963	226.1307547407112	1112.085475562086	1681.835994182567	257.8118413588477	1079.822900795486	2130.785973657364	1040.41359202276	1183.696735824798	1762.731966280935	76.31452207650216	1062.245318839883	1720.951576547275	93.97499922187279	1157.648849320452	2032.130340523295	1031.927646667477	1084.71097470742	1761.884270339815	290.2977460322082	1148.612937160497	1738.875962618344	312.0915497434723	1104.325901927532	1800.954835628775	360.538993573937	1160.484520421964	1778.582995756627	380.6430023849117	1116.274142129316	2013.459180838205	614.7275782362096	1200.874874390509	1951.545509702018	626.3331806270711	1162.490099897171	2024.741028870495	724.3344222476881	1212.845818778198	1966.232111342751	735.2510662889079	1174.932254687004	
2814	18.75333333333333	2182.799345921455	979.5731983929136	941.2739912452105	2225.344929403946	25.43565369317012	999.848580642941	2245.06686521755	52.37453215521867	954.3546342416648	2218.583660905468	75.33187525647037	1000.038933478194	2122.480864311557	1054.492114335015	895.7703421300512	2413.548683528306	114.653320727911	1016.608853152772	2382.901768855053	93.30801658643618	917.8418266160895	2030.562361516321	1027.372222805645	988.8125237587356	2244.373840802159	194.208746739258	935.5525865673386	2209.392945854089	187.7767161610493	972.2238769850525	2222.95800229615	270.8636310340266	921.8264018703676	2186.259122137194	268.948050732746	960.8179726880282	2195.140961970297	632.7404159557193	892.9274748463251	2135.675407859914	607.6899335542446	926.5475568473724	2145.019395783233	731.3424133782291	885.7599833953595	2091.662038173968	709.1896870287019	921.4407101763366	2172.835448738966	982.3511188973958	1162.502190321771	1767.648082284195	135.1872561515538	1113.703874603217	1637.5323195072	249.5004735305943	1064.074225142041	1651.441558942984	234.5277039371424	1108.527159547861	1681.618086221486	264.5946092500658	1076.830351143601	2130.922945842883	1039.868419638858	1182.822864741195	1755.811324976792	79.77047654912428	1064.657463999525	1711.620728177578	99.86294621873252	1158.075588096499	2032.414534542169	1030.632781748998	1083.894479985039	1760.093446279364	294.6794965423778	1147.677221693771	1738.585267111689	316.7724957195765	1102.861941942999	1801.032629070911	363.8484400509541	1159.783079585668	1780.077983736896	384.2270215930189	1114.996955757694	2017.689887709515	612.7684297353126	1201.904540089119	1955.733346898861	623.3854442544276	1163.288062131014	2027.575738597734	722.5620568334031	1213.223014243472	1968.911995833607	732.5162250355403	1175.364242840078	
2815	18.76	2183.211775657834	977.9111006527642	940.195454563167	2224.13286903879	23.65142940357453	998.4698748179418	2243.903575788261	50.54218213113358	953.0305646317577	2217.649184624133	73.50851817807225	998.8132307634482	2122.86300178545	1052.386879020141	894.9156180154209	2412.420392163522	112.1687780607248	1015.078765292702	2381.539308691546	91.07811072574032	916.4654409222883	2030.812918126664	1025.252720346498	988.1614080086968	2243.284021897783	191.6947655881868	934.3614705984302	2208.218897836837	185.1047497737536	970.9295825023273	2221.844647454468	268.375248842521	920.8366184504588	2185.006722398152	266.2942695707275	959.6886462050405	2193.885710053978	630.1132166746147	892.4060165551865	2134.459182467844	605.5036836435335	926.4517321297185	2144.20680159784	728.9638066078663	885.1277540510154	2090.963826510789	707.2246090412422	921.2336344005538	2173.342505216658	981.3688420578661	1161.599021960366	1762.107150836437	139.1429172605486	1115.529470571554	1637.649519137478	256.9856607104156	1059.725348418136	1649.52660017899	242.3782316549593	1104.932819838268	1681.867022191823	270.75877776627	1073.661537475161	2131.025474474106	1038.779255068281	1181.993370353619	1749.887882953509	83.10614410022244	1067.284309166703	1703.535487297808	106.0381025467634	1158.688500028938	2032.72071626198	1028.841829079002	1083.127136931955	1758.994578761721	298.8296914525463	1146.662021294481	1739.057056202376	321.1914544237693	1101.307266687167	1801.834391037445	366.8487526068698	1159.029889124997	1782.343828729455	387.462733426109	1113.670693825214	2022.419491064293	610.2001096080463	1203.036974571256	1960.422962760244	619.7454460788679	1164.177373763265	2030.751316205729	720.1750009356131	1213.685590286896	1971.943855545499	729.0766897371334	1175.864573279021	
2816	18.76666666666667	2183.684022744089	975.8564187698695	939.0435987925034	2220.020652327772	22.2538460266038	997.1687882646295	2240.130525905318	48.88969500428785	951.8155502188799	2214.39158923375	72.07211752760799	997.7319940186065	2123.200534394127	1049.926615226492	894.0630571838639	2409.107504990102	107.9912703257259	1013.815608270928	2377.86391003654	87.57304637565909	915.3211469601343	2031.079528560565	1022.705476750638	987.5708556744626	2240.844584316991	188.7611370742638	933.2462031828162	2205.512127145662	182.2614748161545	969.5771054811635	2219.861527550379	265.5844455955079	919.8233139177606	2182.749206023607	263.5747598930652	958.4025974196149	2192.940215081105	627.2193258485387	891.9181539006988	2133.485791051816	602.9722157936474	926.2056825082035	2143.643225779915	726.2732921462709	884.4774228655093	2090.428220399177	704.8739033284306	920.8664500214001	2173.884021010397	979.88216249034	1160.692709715378	1757.619639970928	143.1426888916053	1117.251442744175	1638.236050892749	263.6408667846167	1055.56038985957	1648.373057592586	249.6471058156928	1101.462878097642	1682.531861858281	276.3219891944808	1070.434551582685	2131.108860463195	1037.137355200387	1181.215703442225	1745.011786341014	86.34575643139124	1070.00129366583	1696.912036330504	112.4135215377234	1159.476230788457	2033.046490023982	1026.561676092315	1082.411904043735	1758.626334012203	302.7209596698114	1145.604850067011	1740.292094876359	325.3363351401501	1099.724269639965	1803.370806377622	369.5165090220618	1158.273195187728	1785.368004415847	390.3395285000295	1112.365003896784	2027.588952339454	607.0559794549337	1204.270173293263	1965.563509686414	615.4595375480239	1165.153245495535	2034.23103329141	717.1990946546099	1214.238386069243	1975.305182097962	724.9728160283038	1176.421086256807	
